<svg xmlns="http://www.w3.org/2000/svg"  viewBox="0 0 100 100" width="500px" height="500px"><path fill="#c7ede6" d="M50,12c-20.987,0-38,17.013-38,38s17.013,38,38,38s38-17.013,38-38S70.987,12,50,12z"/><path fill="#fff" d="M64.483,78.034c-1.371,0-2.483,1.112-2.483,2.483S63.112,83,64.483,83s2.483-1.112,2.483-2.483 S65.854,78.034,64.483,78.034z M14,49c-0.552,0-1,0.448-1,1s0.448,1,1,1c0.552,0,1-0.448,1-1S14.552,49,14,49z"/><path fill="#472b29" d="M37,74.252c0,0.829-0.668,1.504-1.5,1.504S34,75.082,34,74.252c0-0.83,0.668-1.496,1.5-1.496 S37,73.423,37,74.252z"/><path fill="#472b29" d="M46,79.26c0,0.822-0.674,1.496-1.504,1.496c-0.829,0-1.496-0.674-1.496-1.496 c0-0.83,0.667-1.504,1.496-1.504C45.326,77.756,46,78.431,46,79.26z"/><path fill="#472b29" d="M66,74.252c0,0.829-0.668,1.504-1.5,1.504c-0.832,0-1.5-0.674-1.5-1.504 c0-0.83,0.668-1.496,1.5-1.496C65.332,72.756,66,73.423,66,74.252z"/><path fill="#472b29" d="M58,79.26c0,0.822-0.674,1.496-1.504,1.496c-0.822,0-1.496-0.674-1.496-1.496 c0-0.83,0.674-1.504,1.496-1.504C57.326,77.756,58,78.431,58,79.26z"/><path fill="#f1bc19" d="M78,13c-0.552,0-1,0.448-1,1s0.448,1,1,1s1-0.448,1-1S78.552,13,78,13z"/><path fill="#f1bc19" d="M72,7c-2.209,0-4,1.791-4,4s1.791,4,4,4s4-1.791,4-4S74.209,7,72,7z"/><path fill="#fbcd59" d="M76,71c-1.105,0-2,0.895-2,2s0.895,2,2,2s2-0.895,2-2S77.105,71,76,71z M15,70 c-2.209,0-4,1.791-4,4s1.791,4,4,4s4-1.791,4-4S17.209,70,15,70z"/><path fill="#ee3e54" d="M41,23c-1.105,0-2,0.895-2,2s0.895,2,2,2s2-0.895,2-2S42.105,23,41,23z"/><path fill="#f1bc19" d="M86,30c-0.552,0-1,0.448-1,1s0.448,1,1,1s1-0.448,1-1S86.552,30,86,30z"/><path fill="#78a2d2" d="M24.458,28c-0.914,0-1.657-0.739-1.657-1.647c0-0.914,0.743-1.657,1.657-1.657 c0.909,0,1.647,0.743,1.647,1.657c0,0.349-0.11,0.687-0.312,0.967l-0.099,0.113c-0.139,0.165-0.31,0.298-0.509,0.395 C24.952,27.944,24.709,28,24.458,28z"/><path fill="#472b29" d="M24.458,25.396c0.523,0,0.948,0.43,0.948,0.958c0,0.184-0.053,0.363-0.151,0.515l-0.096,0.114 c-0.075,0.089-0.17,0.163-0.295,0.223c-0.127,0.063-0.264,0.096-0.406,0.096c-0.528,0-0.957-0.425-0.957-0.948 C23.5,25.825,23.93,25.396,24.458,25.396 M24.458,23.996c-1.305,0-2.357,1.052-2.357,2.358c0,1.296,1.052,2.348,2.357,2.348 c0.37,0,0.721-0.088,1.033-0.244c0.282-0.136,0.536-0.331,0.74-0.575h0.01c0.351-0.409,0.565-0.945,0.565-1.529 C26.805,25.048,25.753,23.996,24.458,23.996L24.458,23.996z"/><path fill="#78a2d2" d="M75.643,28c-0.252,0-0.494-0.057-0.721-0.17c-0.206-0.1-0.377-0.232-0.516-0.397l-0.122-0.146 c-0.188-0.274-0.289-0.6-0.289-0.935c0-0.914,0.739-1.657,1.647-1.657c0.914,0,1.657,0.743,1.657,1.657 C77.3,27.261,76.557,28,75.643,28z"/><path fill="#472b29" d="M75.643,25.396c0.528,0,0.957,0.43,0.957,0.958c0,0.522-0.43,0.948-0.957,0.948 c-0.143,0-0.279-0.032-0.424-0.104c-0.106-0.051-0.202-0.125-0.277-0.214l-0.089-0.103c-0.103-0.155-0.158-0.338-0.158-0.526 C74.695,25.825,75.12,25.396,75.643,25.396 M75.643,23.996c-1.296,0-2.348,1.052-2.348,2.358c0,0.584,0.214,1.12,0.565,1.529h0.01 c0.205,0.244,0.458,0.438,0.74,0.575c0.312,0.156,0.662,0.244,1.033,0.244c1.305,0,2.357-1.052,2.357-2.348 C78,25.048,76.948,23.996,75.643,23.996L75.643,23.996z"/><path fill="#78a2d2" d="M26.718,47.01l-1.974-18.938l0.431-0.218c0.192-0.097,0.366-0.239,0.503-0.41l0.21-0.263h0.509 l0.163,0.081l15.937,8.38l-0.864,5.603l-0.355,0.153c-4.294,1.854-6.971,3.927-8.68,6.723l-0.276,0.451L26.718,47.01z"/><path fill="#472b29" d="M26.234,27.882l15.495,8.147L41,40.756c-3.799,1.64-6.989,3.711-9,7l-4.635-1.292L25.49,28.48 c0.28-0.142,0.532-0.344,0.735-0.597H26.234 M26.58,26.482h-0.346h-0.01h-0.672l-0.42,0.524c-0.076,0.095-0.169,0.17-0.274,0.224 l-0.861,0.435l0.1,0.96l1.875,17.985l0.099,0.948l0.918,0.256l4.635,1.292l1.019,0.284l0.552-0.902 c1.629-2.664,4.207-4.652,8.36-6.445l0.711-0.307l0.118-0.765l0.729-4.726l0.152-0.988l-0.884-0.465l-15.495-8.147L26.58,26.482 L26.58,26.482z"/><path fill="#78a2d2" d="M67.4,49.117c-2.058-3.424-5.141-6.165-8.681-7.72l-0.339-0.148l-0.918-4.903l16.223-8.676h0.514 l0.22,0.266c0.14,0.178,0.317,0.324,0.512,0.425l0.424,0.219L73.368,47.96l-5.692,1.615L67.4,49.117z"/><path fill="#472b29" d="M73.87,28.369c0.205,0.259,0.458,0.467,0.74,0.612l-1.89,18.435L68,48.756 c-2.026-3.372-5.172-6.319-9-8l-0.756-4.036l15.616-8.351H73.87 M74.548,26.969H73.87h-0.01h-0.351L73.2,27.135l-15.616,8.351 l-0.905,0.484l0.189,1.008l0.756,4.036l0.136,0.727l0.677,0.297c3.409,1.496,6.379,4.138,8.363,7.439l0.552,0.918l1.031-0.293 l4.72-1.34l0.913-0.259l0.097-0.945l1.89-18.435l0.098-0.951l-0.85-0.437c-0.108-0.055-0.202-0.134-0.281-0.234L74.548,26.969 L74.548,26.969z"/><line x1="35.763" x2="39.326" y1="34.01" y2="35.799" fill="none" stroke="#472b29" stroke-linecap="round" stroke-linejoin="round" stroke-miterlimit="10" stroke-width=".5"/><polyline fill="none" stroke="#472b29" stroke-linecap="round" stroke-linejoin="round" stroke-miterlimit="10" stroke-width=".5" points="28.748,42.928 27.41,30.694 27.306,29.765 28.104,30.164 34.18,33.215"/><line x1="68.031" x2="65.633" y1="33.149" y2="34.263" fill="none" stroke="#472b29" stroke-linecap="round" stroke-linejoin="round" stroke-miterlimit="10" stroke-width=".5"/><polyline fill="none" stroke="#472b29" stroke-linecap="round" stroke-linejoin="round" stroke-miterlimit="10" stroke-width=".5" points="71.585,43.902 72.916,31.729 73.02,30.805 72.226,31.202 69.005,32.697"/><path fill="#78a2d2" d="M42.717,73.457h-6.164l4.035-4.893c3.179,1.788,6.764,2.73,10.407,2.73 c3.327,0,6.633-0.792,9.602-2.297l3.39,4.721l-6.927-0.285l-1.053,4.87l-5.791-3.706l-5.852,4.045L42.717,73.457z"/><path fill="#472b29" d="M40.76,69.455c3.153,1.665,6.667,2.539,10.235,2.539c3.236,0,6.453-0.726,9.378-2.107l2.207,3.073 l-4.904-0.202L56.5,72.709l-0.249,1.152l-0.715,3.309l-4.549-2.911l-0.785-0.502l-0.766,0.53l-4.69,3.242l-1.206-3.795l-0.31-0.976 h-1.024h-4.167L40.76,69.455 M40.426,67.66l-5.357,6.497h7.136l1.779,5.599l6.247-4.318l6.247,3.998l1.141-5.279l7.775,0.32 l-4.584-6.382c-2.92,1.589-6.266,2.499-9.815,2.499C47.137,70.594,43.52,69.518,40.426,67.66L40.426,67.66z"/><path fill="#ee3e54" d="M22,56c-1.105,0-2,0.895-2,2s0.895,2,2,2s2-0.895,2-2S23.105,56,22,56z"/><path fill="#fff" d="M81,54c-1.105,0-2,0.895-2,2s0.895,2,2,2s2-0.895,2-2S82.105,54,81,54z"/><path fill="#78a2d2" d="M50.009,71.037c-3.471,0-6.878-0.772-9.851-2.231c-5.821-2.853-9.437-8.082-9.437-13.648	c0-2.675,0.827-5.317,2.391-7.64c1.918-2.883,4.965-5.259,8.584-6.693c2.603-1.025,5.4-1.545,8.313-1.545	c2.54,0,5.014,0.401,7.352,1.19c3.973,1.354,7.327,3.804,9.446,6.901c1.63,2.361,2.491,5.052,2.491,7.787	c0,5.845-3.884,11.201-10.137,13.977C56.356,70.379,53.191,71.037,50.009,71.037z"/><path fill="none" stroke="#472b29" stroke-linecap="round" stroke-linejoin="round" stroke-miterlimit="10" stroke-width=".5" d="M57.036,42.908c5.699,2.465,9.616,7.584,9.616,13.499"/><path fill="#fff" d="M50.482,71.677c-6.169,0-10.833-2.336-11.029-2.436l-0.075-0.038l-0.058-0.061 c-0.185-0.191-4.507-4.741-3.553-9.58c0.557-2.825,2.792-5.116,6.645-6.811l0.146-0.064l0.157,0.033 c3.212,0.673,6.563,2.408,7.294,2.801c0.731-0.393,4.082-2.128,7.294-2.801l0.157-0.033l0.147,0.064 c3.845,1.693,6.078,3.984,6.636,6.81c0.956,4.839-3.359,9.39-3.543,9.581l-0.056,0.058l-0.071,0.038 c-3.06,1.618-6.455,2.438-10.09,2.438C50.483,71.677,50.482,71.677,50.482,71.677z"/><path fill="#472b29" d="M57.406,53.21C70,58.756,60.339,68.796,60.339,68.796c-3.376,1.786-6.796,2.381-9.857,2.381 c-6.121,0-10.802-2.381-10.802-2.381S30,58.756,42.613,53.21c3.522,0.737,7.295,2.826,7.295,2.826h0.202 C50.111,56.036,53.884,53.947,57.406,53.21 M57.515,52.166l-0.314,0.066c-3.006,0.629-6.121,2.166-7.192,2.725 c-1.071-0.559-4.186-2.096-7.192-2.725l-0.314-0.066l-0.294,0.129c-4.01,1.763-6.343,4.177-6.934,7.172 c-1.004,5.091,3.492,9.825,3.683,10.024l0.117,0.121l0.15,0.076c0.2,0.102,4.967,2.49,11.256,2.49c3.719,0,7.193-0.84,10.325-2.497 l0.142-0.075l0.111-0.116c0.192-0.199,4.679-4.933,3.674-10.025c-0.591-2.995-2.921-5.407-6.925-7.17L57.515,52.166L57.515,52.166z"/><ellipse cx="49.948" cy="65.927" fill="#472b29" rx="1.523" ry="1.027"/><path fill="#472b29" d="M57.817,64.179c-1.019,0.212-2.109-0.885-2.43-2.442c-0.071-0.321-0.201-0.66-0.303-1.232	l0.951-0.294l2.269-0.904c0.359,0.43,0.635,1.006,0.769,1.667C59.401,62.531,58.83,63.967,57.817,64.179z"/><line x1="55.5" x2="60.112" y1="60.256" y2="58.582" fill="none" stroke="#472b29" stroke-linecap="round" stroke-linejoin="round" stroke-miterlimit="10"/><line x1="58.136" x2="59.944" y1="60.909" y2="60.185" fill="none" stroke="#472b29" stroke-linecap="round" stroke-linejoin="round" stroke-miterlimit="10"/><path fill="#472b29" d="M42.299,64.179c1.019,0.212,2.109-0.885,2.43-2.442c0.071-0.321,0.201-0.66,0.303-1.232l-0.951-0.294	l-2.269-0.904c-0.359,0.43-0.635,1.006-0.769,1.667C40.715,62.531,41.286,63.967,42.299,64.179z"/><line x1="44.5" x2="40.004" y1="60.256" y2="58.582" fill="none" stroke="#472b29" stroke-linecap="round" stroke-linejoin="round" stroke-miterlimit="10"/><line x1="41.98" x2="40.173" y1="60.909" y2="60.185" fill="none" stroke="#472b29" stroke-linecap="round" stroke-linejoin="round" stroke-miterlimit="10"/><g><path fill="#fff" d="M46.893,51.762v-1.47c-1.752-0.774-2.826-2.211-2.826-3.812c0-2.433,2.548-4.412,5.681-4.412 c3.133,0,5.681,1.979,5.681,4.412c0,1.602-1.074,3.038-2.826,3.812v1.47H46.893z"/><path fill="#472b29" d="M49.748,42.568c2.864,0,5.181,1.748,5.181,3.912c0,1.521-1.149,2.843-2.826,3.478v1.304h-4.71 v-1.304c-1.677-0.635-2.826-1.956-2.826-3.478C44.567,44.315,46.884,42.568,49.748,42.568 M49.748,41.568 c-3.408,0-6.181,2.204-6.181,4.912c0,1.711,1.066,3.245,2.826,4.13v0.652v1h1h4.71h1v-1V50.61c1.76-0.884,2.826-2.419,2.826-4.13 C55.929,43.771,53.156,41.568,49.748,41.568L49.748,41.568z"/></g><g><path fill="#472b29" d="M47.989,45.264c-0.742-0.27-1.589,0.143-1.932,0.939c-0.177,0.411-0.184,0.867-0.019,1.251 c0.146,0.342,0.415,0.599,0.756,0.725h0c0.148,0.054,0.302,0.08,0.456,0.08c0.603,0,1.208-0.395,1.476-1.02 c0.177-0.412,0.184-0.868,0.019-1.252C48.6,45.647,48.331,45.39,47.989,45.264z M47.809,46.845 c-0.126,0.295-0.444,0.476-0.669,0.395c-0.083-0.03-0.144-0.091-0.182-0.18c-0.057-0.133-0.05-0.301,0.019-0.462 c0.127-0.294,0.438-0.478,0.668-0.395c0.083,0.03,0.145,0.091,0.183,0.18C47.885,46.516,47.878,46.684,47.809,46.845z"/><path fill="#472b29" d="M53.437,46.204c-0.337-0.785-1.207-1.204-1.932-0.939c-0.341,0.126-0.61,0.383-0.756,0.724 c-0.165,0.384-0.158,0.84,0.019,1.252c0.272,0.632,0.861,1.022,1.462,1.022c0.157,0,0.315-0.027,0.469-0.083h0 c0.341-0.126,0.61-0.383,0.757-0.725C53.622,47.071,53.615,46.615,53.437,46.204z M52.538,47.06c-0.039,0.089-0.1,0.149-0.183,0.18 c-0.232,0.084-0.542-0.101-0.668-0.395c-0.069-0.161-0.076-0.329-0.019-0.462c0.038-0.089,0.1-0.149,0.182-0.18 c0.038-0.014,0.078-0.021,0.119-0.021c0.208,0,0.444,0.169,0.55,0.416C52.588,46.759,52.595,46.927,52.538,47.06z"/></g><path fill="#472b29" d="M50.009,40.002c2.466,0,4.866,0.4,7.13,1.187c3.836,1.345,7.069,3.773,9.107,6.841	c1.549,2.31,2.368,4.944,2.368,7.616c0,5.735-3.729,11.002-9.731,13.746c-2.718,1.241-5.787,1.898-8.875,1.898	c-3.369,0-6.671-0.769-9.552-2.225c-5.585-2.819-9.054-7.96-9.054-13.419c0-2.613,0.787-5.197,2.28-7.479	c1.839-2.846,4.774-5.198,8.262-6.622C44.47,40.521,47.184,40.002,50.009,40.002 M50.009,38.598c-3.065,0-5.972,0.59-8.564,1.64	c-3.771,1.539-6.892,4.045-8.898,7.151c-1.598,2.442-2.508,5.262-2.508,8.257c0,6.248,3.938,11.712,9.818,14.679	c2.972,1.502,6.446,2.368,10.152,2.368c3.409,0,6.623-0.737,9.428-2.018c6.27-2.866,10.542-8.533,10.542-15.029	c0-3.059-0.947-5.934-2.61-8.413c-2.192-3.299-5.638-5.916-9.79-7.372C55.248,39.05,52.694,38.598,50.009,38.598L50.009,38.598z"/></svg>